<svg width="15" height="12" viewBox="0 0 15 12" fill="none" xmlns="http://www.w3.org/2000/svg">
<path d="M8.08 8.76C8.08 8.54667 8.09333 8.13333 8.12 7.52C8.17333 6.90667 8.29333 6.2 8.48 5.4C8.69333 4.6 9.01333 3.82667 9.44 3.08C9.89333 2.33333 10.4933 1.72 11.24 1.24C11.9867 0.733332 12.9333 0.479999 14.08 0.479999V4.48C13.12 4.48 12.36 4.62667 11.8 4.92C11.24 5.18667 10.8133 5.53333 10.52 5.96C10.2533 6.38667 10.08 6.81333 10 7.24C9.94667 7.66667 9.93333 8.02667 9.96 8.32C9.98667 8.61333 10 8.76 10 8.76H8.08ZM3.52 11.28C2.58667 11.28 1.92 11.04 1.52 10.56C1.14667 10.0533 0.96 9.42667 0.96 8.68C0.96 7.98667 1.13333 7.4 1.48 6.92C1.82667 6.41333 2.48 6.16 3.44 6.16C4.42667 6.16 5.12 6.41333 5.52 6.92C5.92 7.42667 6.12 8.02667 6.12 8.72C6.12 9.44 5.92 10.0533 5.52 10.56C5.14667 11.04 4.48 11.28 3.52 11.28ZM0.96 8.76C0.96 8.54667 0.986667 8.13333 1.04 7.52C1.09333 6.90667 1.21333 6.2 1.4 5.4C1.58667 4.6 1.89333 3.82667 2.32 3.08C2.77333 2.33333 3.37333 1.72 4.12 1.24C4.86667 0.733332 5.82667 0.479999 7 0.479999V4.48C6.01333 4.48 5.24 4.62667 4.68 4.92C4.12 5.18667 3.70667 5.53333 3.44 5.96C3.17333 6.38667 3 6.81333 2.92 7.24C2.84 7.66667 2.81333 8.02667 2.84 8.32C2.86667 8.61333 2.88 8.76 2.88 8.76H0.96ZM10.64 11.28C9.70667 11.28 9.04 11.04 8.64 10.56C8.26667 10.0533 8.08 9.42667 8.08 8.68C8.08 7.98667 8.25333 7.4 8.6 6.92C8.94667 6.41333 9.6 6.16 10.56 6.16C11.5467 6.16 12.24 6.41333 12.64 6.92C13.04 7.42667 13.24 8.02667 13.24 8.72C13.24 9.44 13.04 10.0533 12.64 10.56C12.24 11.04 11.5733 11.28 10.64 11.28Z" fill="black"/>
</svg>
