<svg width="24" height="24" viewBox="0 0 24 24" fill="none" xmlns="http://www.w3.org/2000/svg">
<circle cx="12" cy="12" r="12" fill="#E5212B"/>
<path fill-rule="evenodd" clip-rule="evenodd" d="M17.631 7.26932C18.2478 7.43543 18.7342 7.92169 18.9002 8.53857C19.2087 9.66532 19.1968 12.014 19.1968 12.014C19.1968 12.014 19.1968 14.3506 18.9003 15.4775C18.7342 16.0943 18.2479 16.5806 17.631 16.7466C16.5042 17.0433 11.9968 17.0433 11.9968 17.0433C11.9968 17.0433 7.50126 17.0433 6.36264 16.7349C5.74576 16.5688 5.25951 16.0824 5.09339 15.4656C4.79688 14.3506 4.79688 12.0021 4.79688 12.0021C4.79688 12.0021 4.79688 9.66532 5.09339 8.53857C5.2594 7.9218 5.75763 7.42357 6.36253 7.25757C7.48939 6.96094 11.9967 6.96094 11.9967 6.96094C11.9967 6.96094 16.5042 6.96094 17.631 7.26932ZM14.3098 12.0021L10.5616 14.1609V9.8433L14.3098 12.0021Z" fill="white"/>
</svg>
