<svg width="24" height="24" viewBox="0 0 24 24" fill="none" xmlns="http://www.w3.org/2000/svg">
<circle cx="12" cy="12" r="12" fill="#DC0082"/>
<path fill-rule="evenodd" clip-rule="evenodd" d="M6 8.34C6 7.36507 6 6.8776 6.24828 6.53588C6.32846 6.42552 6.42552 6.32846 6.53588 6.24828C6.8776 6 7.36507 6 8.34 6H15.66C16.6349 6 17.1224 6 17.4641 6.24828C17.5745 6.32846 17.6715 6.42552 17.7517 6.53588C18 6.8776 18 7.36507 18 8.34V15.66C18 16.6349 18 17.1224 17.7517 17.4641C17.6715 17.5745 17.5745 17.6715 17.4641 17.7517C17.1224 18 16.6349 18 15.66 18H8.34C7.36507 18 6.8776 18 6.53588 17.7517C6.42552 17.6715 6.32846 17.5745 6.24828 17.4641C6 17.1224 6 16.6349 6 15.66V8.34ZM12 8.82353C10.2458 8.82353 8.82353 10.2458 8.82353 12C8.82353 13.7542 10.2458 15.1765 12 15.1765C13.7542 15.1765 15.1765 13.7542 15.1765 12C15.1765 10.2458 13.7542 8.82353 12 8.82353ZM12 13.9853C10.9057 13.9853 10.0147 13.0943 10.0147 12C10.0147 10.9049 10.9057 10.0147 12 10.0147C13.0943 10.0147 13.9853 10.9049 13.9853 12C13.9853 13.0943 13.0943 13.9853 12 13.9853ZM15.838 8.5853C15.838 8.81906 15.6485 9.00856 15.4147 9.00856C15.1809 9.00856 14.9914 8.81906 14.9914 8.5853C14.9914 8.35154 15.1809 8.16203 15.4147 8.16203C15.6485 8.16203 15.838 8.35154 15.838 8.5853Z" fill="white"/>
</svg>
