<svg width="24" height="24" viewBox="0 0 24 24" fill="none" xmlns="http://www.w3.org/2000/svg">
<circle cx="12" cy="12" r="12" fill="white"/>
<g clip-path="url(#clip0_1158_1013)">
<path fill-rule="evenodd" clip-rule="evenodd" d="M12 24C18.6274 24 24 18.6274 24 12C24 5.37258 18.6274 0 12 0C5.37258 0 0 5.37258 0 12C0 18.6274 5.37258 24 12 24ZM10.8032 10.756C11.3431 10.238 12.0662 9.92272 12.8366 9.86952C16.0743 9.86952 16.1958 13.3314 16.1958 13.3314C16.2185 13.7668 16.1493 14.2021 15.992 14.6122C15.8347 15.0225 15.5926 15.3994 15.2794 15.7216C14.9663 16.0438 14.5883 16.3047 14.1674 16.4895C13.7463 16.6742 13.2905 16.7792 12.8261 16.7982C12.4311 16.8132 12.0387 16.7322 11.687 16.5629C11.3354 16.3937 11.0364 16.1421 10.819 15.8325V16.5654H8.4V7.2H10.8032V10.756ZM11.4546 14.5793C11.7073 14.7376 12.0045 14.8222 12.3085 14.8222V14.8023C12.7125 14.8024 13.1002 14.6533 13.3878 14.3872C13.6755 14.1212 13.8399 13.7597 13.8454 13.381C13.8454 13.0958 13.7553 12.8172 13.5864 12.5802C13.4175 12.3432 13.1775 12.1585 12.8966 12.0494C12.6158 11.9403 12.3067 11.9118 12.0086 11.9674C11.7105 12.023 11.4366 12.1602 11.2217 12.3618C11.0067 12.5634 10.8603 12.8202 10.801 13.0998C10.7417 13.3793 10.7722 13.6691 10.8885 13.9325C11.0048 14.1958 11.2018 14.4209 11.4546 14.5793Z" fill="#03C75A"/>
</g>
<defs>
<clipPath id="clip0_1158_1013">
<rect width="24" height="24" fill="white"/>
</clipPath>
</defs>
</svg>
