<svg width="14" height="16" viewBox="0 0 14 16" fill="none" xmlns="http://www.w3.org/2000/svg">
<path d="M0.674775 5.88079C-0.677882 8.22807 0.182027 11.7902 1.67784 13.95C2.42449 15.0299 3.18043 15.9991 4.21581 15.9991C4.23533 15.9991 4.25489 15.9988 4.27493 15.998C4.76139 15.9786 5.11291 15.8288 5.4528 15.6841C5.83438 15.5214 6.22903 15.3533 6.84805 15.3533C7.43696 15.3533 7.81277 15.516 8.17621 15.6733C8.5344 15.8282 8.90334 15.9885 9.4485 15.9783C10.6148 15.9566 11.3308 14.9107 11.9626 13.988C12.6219 13.0246 12.9526 12.0892 13.0641 11.7317L13.0686 11.7175C13.0899 11.654 13.0599 11.5846 12.999 11.5566C12.9973 11.5559 12.9911 11.5533 12.9894 11.5526C12.784 11.4686 10.9825 10.6694 10.9635 8.49104C10.9459 6.72129 12.315 5.7841 12.5896 5.61424L12.6024 5.60627C12.6321 5.58712 12.6529 5.55675 12.6599 5.52202C12.6669 5.48734 12.6596 5.45125 12.6396 5.42208C11.6946 4.03916 10.2462 3.83074 9.66311 3.80566C9.57849 3.79722 9.49115 3.79297 9.40344 3.79297C8.71853 3.79297 8.06243 4.05164 7.53532 4.25949C7.17146 4.40296 6.85718 4.52687 6.64042 4.52687C6.39685 4.52687 6.08078 4.40144 5.71478 4.25623C5.22533 4.06198 4.67058 3.84186 4.0833 3.84186C4.06929 3.84186 4.0555 3.84202 4.04191 3.84228C2.6764 3.86237 1.38612 4.64359 0.674775 5.88079Z" fill="white"/>
<path d="M9.65856 0.000100797C8.83165 0.0337795 7.83971 0.54279 7.24682 1.23724C6.74295 1.82095 6.25073 2.79417 6.38041 3.77516C6.38854 3.83654 6.43848 3.88391 6.50022 3.88868C6.55604 3.89303 6.61301 3.89524 6.66977 3.89529C7.47832 3.89529 8.35055 3.44797 8.94623 2.72771C9.57316 1.96716 9.89017 0.991105 9.79428 0.116822C9.78672 0.0483107 9.72645 -0.00257461 9.65856 0.000100797Z" fill="white"/>
</svg>
