<svg width="14" height="16" viewBox="0 0 14 16" fill="none" xmlns="http://www.w3.org/2000/svg">
<path d="M0.674775 5.88164C-0.677882 8.22892 0.182027 11.791 1.67784 13.9509C2.42449 15.0307 3.18043 16 4.21581 16C4.23533 16 4.25489 15.9996 4.27493 15.9988C4.76139 15.9794 5.11292 15.8297 5.4528 15.6849C5.83438 15.5223 6.22903 15.3542 6.84805 15.3542C7.43696 15.3542 7.81277 15.5168 8.17621 15.6741C8.5344 15.8291 8.90334 15.9894 9.4485 15.9792C10.6148 15.9574 11.3308 14.9115 11.9626 13.9888C12.6219 13.0254 12.9526 12.09 13.0641 11.7326L13.0686 11.7183C13.0899 11.6548 13.0599 11.5855 12.999 11.5575C12.9973 11.5567 12.9911 11.5541 12.9894 11.5534C12.784 11.4694 10.9825 10.6702 10.9635 8.4919C10.9459 6.72214 12.315 5.78496 12.5896 5.6151L12.6024 5.60712C12.6321 5.58798 12.6529 5.5576 12.6599 5.52287C12.6669 5.4882 12.6596 5.45211 12.6396 5.42294C11.6946 4.04001 10.2462 3.83159 9.66311 3.80652C9.57849 3.79807 9.49115 3.79382 9.40344 3.79382C8.71853 3.79382 8.06243 4.0525 7.53532 4.26034C7.17146 4.40382 6.85718 4.52773 6.64042 4.52773C6.39685 4.52773 6.08078 4.4023 5.71478 4.25709C5.22533 4.06283 4.67058 3.84272 4.0833 3.84272C4.06929 3.84272 4.0555 3.84287 4.04191 3.84313C2.6764 3.86323 1.38612 4.64445 0.674775 5.88164Z" fill="black"/>
<path d="M9.65856 0.000100797C8.83165 0.0337795 7.83971 0.54279 7.24682 1.23724C6.74295 1.82095 6.25073 2.79417 6.38041 3.77516C6.38854 3.83654 6.43848 3.88391 6.50022 3.88868C6.55604 3.89303 6.61301 3.89524 6.66977 3.89529C7.47832 3.89529 8.35055 3.44797 8.94623 2.72771C9.57316 1.96716 9.89017 0.991105 9.79428 0.116822C9.78672 0.0483107 9.72645 -0.00257461 9.65856 0.000100797Z" fill="black"/>
</svg>
