<svg width="25" height="21" viewBox="0 0 25 21" fill="none" xmlns="http://www.w3.org/2000/svg">
<path d="M17.88 20.32C16.1733 20.32 14.9733 19.8933 14.28 19.04C13.64 18.1867 13.32 17.12 13.32 15.84C13.32 15.7867 13.32 15.7333 13.32 15.68C13.32 15.2533 13.3733 14.48 13.48 13.36C13.5867 12.24 13.8267 10.9867 14.2 9.6C14.5733 8.16 15.1333 6.8 15.88 5.52C16.68 4.18666 17.7467 3.09333 19.08 2.24C20.4667 1.38666 22.2 0.959998 24.28 0.959998V7.84C22.2533 7.84 20.7067 8.18666 19.64 8.88C18.5733 9.52 17.8 10.2933 17.32 11.2H17.72C19.4267 11.2 20.6267 11.6533 21.32 12.56C22.0133 13.4133 22.36 14.48 22.36 15.76C22.36 17.04 22.0133 18.1333 21.32 19.04C20.68 19.8933 19.5333 20.32 17.88 20.32ZM5 20.32C3.34667 20.32 2.17333 19.8933 1.48 19.04C0.786667 18.1867 0.44 17.12 0.44 15.84C0.44 15.7867 0.44 15.7333 0.44 15.68C0.44 15.2533 0.493333 14.48 0.6 13.36C0.706667 12.24 0.946667 10.9867 1.32 9.6C1.69333 8.16 2.28 6.8 3.08 5.52C3.88 4.18666 4.94667 3.09333 6.28 2.24C7.61333 1.38666 9.32 0.959998 11.4 0.959998V7.84C9.37333 7.84 7.82667 8.18666 6.76 8.88C5.69333 9.52 4.94667 10.2933 4.52 11.2H4.84C6.6 11.2 7.82667 11.6533 8.52 12.56C9.21333 13.4133 9.56 14.48 9.56 15.76C9.56 17.04 9.21333 18.1333 8.52 19.04C7.82667 19.8933 6.65333 20.32 5 20.32Z" fill="black"/>
</svg>
