<svg width="40" height="40" viewBox="0 0 40 40" fill="none" xmlns="http://www.w3.org/2000/svg">
<circle cx="20" cy="20" r="20" fill="#DC0082"/>
<path fill-rule="evenodd" clip-rule="evenodd" d="M10 20C10 15.8086 10 13.7129 11.0504 12.2672C11.3896 11.8003 11.8003 11.3896 12.2672 11.0504C13.7129 10 15.8086 10 20 10C24.1914 10 26.2871 10 27.7328 11.0504C28.1997 11.3896 28.6104 11.8003 28.9496 12.2672C30 13.7129 30 15.8086 30 20C30 24.1914 30 26.2871 28.9496 27.7328C28.6104 28.1997 28.1997 28.6104 27.7328 28.9496C26.2871 30 24.1914 30 20 30C15.8086 30 13.7129 30 12.2672 28.9496C11.8003 28.6104 11.3896 28.1997 11.0504 27.7328C10 26.2871 10 24.1914 10 20ZM20 14.7059C17.0763 14.7059 14.7059 17.0763 14.7059 20C14.7059 22.9237 17.0763 25.2941 20 25.2941C22.9237 25.2941 25.2941 22.9237 25.2941 20C25.2941 17.0763 22.9237 14.7059 20 14.7059ZM20 23.3088C18.1762 23.3088 16.6912 21.8238 16.6912 20C16.6912 18.1749 18.1762 16.6912 20 16.6912C21.8238 16.6912 23.3088 18.1749 23.3088 20C23.3088 21.8238 21.8238 23.3088 20 23.3088ZM26.3966 14.3088C26.3966 14.6984 26.0808 15.0143 25.6912 15.0143C25.3016 15.0143 24.9857 14.6984 24.9857 14.3088C24.9857 13.9192 25.3016 13.6034 25.6912 13.6034C26.0808 13.6034 26.3966 13.9192 26.3966 14.3088Z" fill="white"/>
</svg>
