<svg width="40" height="40" viewBox="0 0 40 40" fill="none" xmlns="http://www.w3.org/2000/svg">
<circle cx="20" cy="20" r="20" fill="white"/>
<g clip-path="url(#clip0_1073_4764)">
<path fill-rule="evenodd" clip-rule="evenodd" d="M20 40C31.0457 40 40 31.0457 40 20C40 8.95431 31.0457 0 20 0C8.95431 0 0 8.95431 0 20C0 31.0457 8.95431 40 20 40ZM18.0053 17.9267C18.9052 17.0633 20.1104 16.5379 21.3944 16.4492C26.7905 16.4492 26.9929 22.2189 26.9929 22.2189C27.0308 22.9447 26.9155 23.6701 26.6533 24.3537C26.3912 25.0375 25.9876 25.6657 25.4657 26.2027C24.9439 26.7396 24.3139 27.1745 23.6123 27.4825C22.9105 27.7904 22.1508 27.9653 21.3768 27.9971C20.7185 28.022 20.0645 27.8869 19.4784 27.6048C18.8924 27.3228 18.394 26.9035 18.0317 26.3875V27.6091H14V12H18.0053V17.9267ZM19.0909 24.2988C19.5121 24.5627 20.0075 24.7036 20.5141 24.7036V24.6705C21.1875 24.6707 21.8337 24.4221 22.3131 23.9787C22.7925 23.5353 23.0665 22.9328 23.0757 22.3016C23.0757 21.8264 22.9255 21.362 22.644 20.9671C22.3625 20.572 21.9625 20.2641 21.4944 20.0823C21.0263 19.9005 20.5112 19.8529 20.0144 19.9456C19.5175 20.0383 19.0611 20.2671 18.7028 20.6031C18.3445 20.9389 18.1005 21.3669 18.0017 21.8329C17.9028 22.2988 17.9536 22.7819 18.1475 23.2208C18.3413 23.6596 18.6697 24.0348 19.0909 24.2988Z" fill="#03C75A"/>
</g>
<defs>
<clipPath id="clip0_1073_4764">
<rect width="40" height="40" fill="white"/>
</clipPath>
</defs>
</svg>
