<svg width="40" height="40" viewBox="0 0 40 40" fill="none" xmlns="http://www.w3.org/2000/svg">
<circle cx="20" cy="20" r="20" fill="#E5212B"/>
<path fill-rule="evenodd" clip-rule="evenodd" d="M29.3903 12.1136C30.4182 12.3904 31.2288 13.2009 31.5055 14.229C32.0197 16.1069 31.9999 20.0213 31.9999 20.0213C31.9999 20.0213 31.9999 23.9158 31.5057 25.7939C31.2288 26.8218 30.4184 27.6324 29.3903 27.9091C27.5122 28.4035 20 28.4035 20 28.4035C20 28.4035 12.5073 28.4035 10.6096 27.8895C9.58148 27.6127 8.77105 26.802 8.4942 25.7741C8 23.9158 8 20.0015 8 20.0015C8 20.0015 8 16.1069 8.4942 14.229C8.77087 13.201 9.60125 12.3707 10.6094 12.094C12.4875 11.5996 19.9998 11.5996 19.9998 11.5996C19.9998 11.5996 27.5122 11.5996 29.3903 12.1136ZM23.8549 20.0016L17.6079 23.5996V16.4035L23.8549 20.0016Z" fill="white"/>
</svg>
